<?xml version="1.0" encoding="utf-8"?>
<!-- Generator: Adobe Illustrator 24.3.0, SVG Export Plug-In . SVG Version: 6.00 Build 0)  -->
<svg version="1.1" id="Layer_1" xmlns="http://www.w3.org/2000/svg" xmlns:xlink="http://www.w3.org/1999/xlink" x="0px" y="0px"
	 viewBox="0 0 595.28 841.89" style="enable-background:new 0 0 595.28 841.89;" xml:space="preserve">
<style type="text/css">
	.st0{fill:#FFFFFF;stroke:#000000;stroke-miterlimit:10;}
	.st1{stroke:#000000;stroke-miterlimit:10;}
</style>
<path class="st0" d="M261.34,157.27c-35.91,0-65.01,29.11-65.01,65.01s29.11,65.01,65.01,65.01s65.01-29.11,65.01-65.01
	S297.25,157.27,261.34,157.27z M261.34,264.61c-23.37,0-42.32-18.95-42.32-42.32s18.95-42.32,42.32-42.32
	c23.37,0,42.32,18.95,42.32,42.32S284.71,264.61,261.34,264.61z"/>
<path class="st0" d="M277.15,176.47h-31.08l3.51-37.84c0.16-1.69,1.62-2.98,3.37-2.98h17.33c1.75,0,3.21,1.29,3.37,2.98
	L277.15,176.47z"/>
<path class="st0" d="M306.91,176.15c-25.39-25.39-66.55-25.39-91.94,0s-25.39,66.55,0,91.94s66.55,25.39,91.94,0
	C332.3,242.7,332.3,201.54,306.91,176.15z M231.01,252.04c-16.53-16.53-16.53-43.32,0-59.85s43.32-16.53,59.85,0
	c16.53,16.53,16.53,43.32,0,59.85S247.54,268.57,231.01,252.04z"/>
<path class="st1" d="M304.52,200.9l-21.98-21.98l29.24-24.27c1.3-1.08,3.25-0.96,4.49,0.28l12.25,12.25
	c1.24,1.24,1.36,3.18,0.28,4.49L304.52,200.9z"/>
<path class="st0" d="M325.78,221.72c0-35.91-29.11-65.01-65.01-65.01s-65.01,29.11-65.01,65.01s29.11,65.01,65.01,65.01
	S325.78,257.62,325.78,221.72z M218.45,221.72c0-23.37,18.95-42.32,42.32-42.32s42.32,18.95,42.32,42.32
	c0,23.37-18.95,42.32-42.32,42.32S218.45,245.09,218.45,221.72z"/>
<path class="st1" d="M306.59,237.52v-31.08l37.84,3.51c1.69,0.16,2.98,1.62,2.98,3.37v17.33c0,1.75-1.29,3.21-2.98,3.37
	L306.59,237.52z"/>
<path class="st0" d="M306.91,267.28c25.39-25.39,25.39-66.55,0-91.94c-25.39-25.39-66.55-25.39-91.94,0s-25.39,66.55,0,91.94
	C240.36,292.67,281.52,292.67,306.91,267.28z M231.01,191.39c16.53-16.53,43.32-16.53,59.85,0s16.53,43.32,0,59.85
	c-16.53,16.53-43.32,16.53-59.85,0C214.49,234.71,214.49,207.91,231.01,191.39z"/>
<path class="st1" d="M282.16,264.89l21.98-21.98l24.27,29.24c1.08,1.3,0.96,3.25-0.28,4.49l-12.25,12.25
	c-1.24,1.24-3.18,1.36-4.49,0.28L282.16,264.89z"/>
<path class="st0" d="M261.34,286.16c35.91,0,65.01-29.11,65.01-65.01s-29.11-65.01-65.01-65.01s-65.01,29.11-65.01,65.01
	S225.44,286.16,261.34,286.16z M261.34,178.82c23.37,0,42.32,18.95,42.32,42.32s-18.95,42.32-42.32,42.32
	c-23.37,0-42.32-18.95-42.32-42.32S237.97,178.82,261.34,178.82z"/>
<path class="st1" d="M245.53,266.96h31.08l-3.51,37.84c-0.16,1.69-1.62,2.98-3.37,2.98h-17.33c-1.75,0-3.21-1.29-3.37-2.98
	L245.53,266.96z"/>
<path class="st0" d="M215.77,267.28c25.39,25.39,66.55,25.39,91.94,0c25.39-25.39,25.39-66.55,0-91.94
	c-25.39-25.39-66.55-25.39-91.94,0S190.38,241.89,215.77,267.28z M291.67,191.39c16.53,16.53,16.53,43.32,0,59.85
	c-16.53,16.53-43.32,16.53-59.85,0c-16.53-16.53-16.53-43.32,0-59.85S275.14,174.86,291.67,191.39z"/>
<path class="st1" d="M218.17,242.53l21.98,21.98l-29.24,24.27c-1.3,1.08-3.25,0.96-4.49-0.28l-12.25-12.25
	c-1.24-1.24-1.36-3.18-0.28-4.49L218.17,242.53z"/>
<path class="st0" d="M196.9,221.72c0,35.91,29.11,65.01,65.01,65.01s65.01-29.11,65.01-65.01s-29.11-65.01-65.01-65.01
	S196.9,185.81,196.9,221.72z M304.23,221.72c0,23.37-18.95,42.32-42.32,42.32s-42.32-18.95-42.32-42.32
	c0-23.37,18.95-42.32,42.32-42.32S304.23,198.34,304.23,221.72z"/>
<path class="st1" d="M216.09,205.91v31.08l-37.84-3.51c-1.69-0.16-2.98-1.62-2.98-3.37v-17.33c0-1.75,1.29-3.21,2.98-3.37
	L216.09,205.91z"/>
<path class="st0" d="M215.77,176.15c-25.39,25.39-25.39,66.55,0,91.94s66.55,25.39,91.94,0c25.39-25.39,25.39-66.55,0-91.94
	C282.33,150.76,241.16,150.76,215.77,176.15z M291.67,252.04c-16.53,16.53-43.32,16.53-59.85,0s-16.53-43.32,0-59.85
	c16.53-16.53,43.32-16.53,59.85,0S308.2,235.52,291.67,252.04z"/>
<path class="st1" d="M240.52,178.54l-21.98,21.98l-24.27-29.24c-1.08-1.3-0.96-3.25,0.28-4.49l12.25-12.25
	c1.24-1.24,3.18-1.36,4.49-0.28L240.52,178.54z"/>
<path class="st1" d="M261.34,157.27c-35.91,0-65.01,29.11-65.01,65.01s29.11,65.01,65.01,65.01s65.01-29.11,65.01-65.01
	S297.25,157.27,261.34,157.27z M261.34,264.61c-23.37,0-42.32-18.95-42.32-42.32s18.95-42.32,42.32-42.32
	c23.37,0,42.32,18.95,42.32,42.32S284.71,264.61,261.34,264.61z"/>
<path class="st1" d="M277.15,176.47h-31.08l3.51-37.84c0.16-1.69,1.62-2.98,3.37-2.98h17.33c1.75,0,3.21,1.29,3.37,2.98
	L277.15,176.47z"/>
</svg>
