<?xml version="1.0" encoding="utf-8"?>
<!-- Generator: Adobe Illustrator 24.3.0, SVG Export Plug-In . SVG Version: 6.00 Build 0)  -->
<svg version="1.1" id="Layer_1" xmlns="http://www.w3.org/2000/svg" xmlns:xlink="http://www.w3.org/1999/xlink" x="0px" y="0px"
	 viewBox="0 0 595.28 841.89" style="enable-background:new 0 0 595.28 841.89;" xml:space="preserve">
<style type="text/css">
	.st0{fill:#FFFFFF;stroke:#000000;stroke-width:6;stroke-miterlimit:10;}
</style>
<path class="st0" d="M344.43,209.95l-18.92-1.76c-0.79-3.74-1.91-7.36-3.32-10.84c-0.1-0.24-0.19-0.49-0.29-0.73
	c-0.1-0.24-0.21-0.48-0.32-0.73c-1.39-3.28-3.06-6.47-5.02-9.53l12.22-14.72c1.08-1.3,0.96-3.25-0.28-4.49l-12.25-12.25
	c-1.24-1.24-3.18-1.36-4.49-0.28l-14.62,12.14c-3.2-2.09-6.55-3.85-10-5.31c-0.24-0.11-0.48-0.21-0.73-0.32
	c-0.24-0.1-0.48-0.19-0.72-0.29c-3.31-1.34-6.74-2.41-10.29-3.19l-1.77-19.05c-0.16-1.69-1.62-2.98-3.37-2.98h-17.33
	c-1.75,0-3.21,1.29-3.37,2.98l-1.76,18.92c-3.74,0.79-7.36,1.91-10.84,3.32c-0.24,0.1-0.49,0.19-0.73,0.29
	c-0.24,0.1-0.48,0.21-0.72,0.31c-3.28,1.39-6.47,3.06-9.53,5.02l-14.72-12.22c-1.3-1.08-3.25-0.96-4.49,0.28l-12.25,12.25
	c-1.24,1.24-1.36,3.18-0.28,4.49l12.14,14.62c-2.09,3.2-3.85,6.55-5.31,10c-0.1,0.24-0.21,0.48-0.32,0.73
	c-0.1,0.24-0.19,0.49-0.29,0.73c-1.34,3.3-2.41,6.74-3.19,10.29l-19.05,1.77c-1.69,0.16-2.98,1.62-2.98,3.37v17.33
	c0,1.75,1.29,3.21,2.98,3.37l18.92,1.76c0.79,3.74,1.91,7.36,3.32,10.84c0.1,0.24,0.19,0.49,0.29,0.73c0.1,0.24,0.21,0.48,0.31,0.72
	c1.39,3.28,3.06,6.47,5.02,9.53l-12.22,14.72c-1.08,1.3-0.96,3.25,0.28,4.49l12.25,12.25c1.24,1.24,3.18,1.36,4.49,0.28l14.62-12.14
	c3.2,2.09,6.55,3.85,10,5.31c0.24,0.1,0.48,0.21,0.73,0.32c0.24,0.1,0.49,0.19,0.73,0.29c3.3,1.34,6.74,2.41,10.29,3.19l1.77,19.05
	c0.16,1.69,1.62,2.98,3.37,2.98h17.33c1.75,0,3.21-1.29,3.37-2.98l1.76-18.92c3.74-0.79,7.36-1.91,10.84-3.32
	c0.24-0.1,0.49-0.19,0.73-0.29c0.24-0.1,0.48-0.21,0.72-0.31c3.28-1.39,6.47-3.06,9.53-5.02l14.72,12.22
	c1.3,1.08,3.25,0.96,4.49-0.28l12.25-12.25c1.24-1.24,1.36-3.18,0.28-4.49l-12.14-14.62c2.09-3.2,3.85-6.55,5.31-10
	c0.1-0.24,0.21-0.48,0.32-0.73c0.1-0.24,0.19-0.49,0.29-0.73c1.34-3.3,2.41-6.74,3.19-10.29l19.05-1.77
	c1.69-0.16,2.98-1.62,2.98-3.37v-17.33C347.4,211.57,346.11,210.11,344.43,209.95z M290.86,251.24c-4,4-8.61,7.03-13.53,9.09
	c-4.94,2.02-10.33,3.14-15.99,3.14c-5.66,0-11.06-1.12-16-3.14c-4.92-2.06-9.52-5.09-13.53-9.09c-4-4-7.03-8.61-9.09-13.53
	c-2.02-4.94-3.14-10.33-3.14-15.99s1.12-11.06,3.14-15.99c2.06-4.92,5.09-9.52,9.09-13.53s8.61-7.03,13.53-9.09
	c4.94-2.02,10.33-3.14,15.99-3.14c5.66,0,11.06,1.12,15.99,3.14c4.92,2.06,9.52,5.09,13.53,9.09c4,4,7.03,8.61,9.09,13.53
	c2.02,4.94,3.14,10.33,3.14,15.99c0,5.66-1.12,11.06-3.14,15.99C297.89,242.63,294.87,247.23,290.86,251.24z"/>
</svg>
